<svg width="32" height="32" viewBox="0 0 32 32" fill="none" xmlns="http://www.w3.org/2000/svg">
<path d="M6.87868 4.92737C10.1466 7.43337 13.6546 12.5054 16 15.2974C18.3454 12.5054 21.8534 7.43337 25.1213 4.92737C27.4987 3.10537 31.2 1.78537 31.2 5.96137C31.2 6.79737 30.7227 12.5054 30.4 13.7614C29.3547 17.8334 25.184 18.8094 21.4667 18.2414C27.9573 19.2974 29.6 22.9974 25.6 26.6974C18.048 33.6814 16.5813 25.2494 16.1173 23.5694C16.04 23.2894 16 23.1454 16 23.2654C16 23.1454 15.96 23.2894 15.8827 23.5694C15.4187 25.2494 13.952 33.6814 6.4 26.6974C2.4 22.9974 4.04267 19.2974 10.5333 18.2414C6.816 18.8094 2.64533 17.8334 1.6 13.7614C1.27733 12.5054 0.8 6.79737 0.8 5.96137C0.8 1.78537 4.50133 3.10537 6.87868 4.92737Z" fill="#24292E"/>
</svg>
