<svg width="32" height="32" viewBox="0 0 32 32" fill="none" xmlns="http://www.w3.org/2000/svg">
<path d="M29.6364 0H2.35636C1.05455 0 0 1.02909 0 2.29818V29.6945C0 30.9636 1.05455 32 2.35636 32H29.6364C30.9382 32 32 30.9636 32 29.7018V2.29818C32 1.02909 30.9382 0 29.6364 0ZM9.49091 27.28H4.74182V11.9927H9.49091V27.28ZM7.11636 9.90545C5.59273 9.90545 4.36364 8.67636 4.36364 7.16C4.36364 5.64364 5.59273 4.41455 7.11636 4.41455C8.63273 4.41455 9.86182 5.64364 9.86182 7.16C9.86182 8.66909 8.63273 9.90545 7.11636 9.90545ZM27.28 27.28H22.5382V19.8473C22.5382 18.0764 22.5018 15.7964 20.0691 15.7964C17.6 15.7964 17.2218 17.7236 17.2218 19.7164V27.28H12.48V11.9927H17.0327V14.08H17.0982C17.7309 12.88 19.28 11.6109 21.5927 11.6109C26.4 11.6109 27.28 14.7782 27.28 18.8945V27.28Z" fill="#24292E"/>
</svg>
