<svg width="32" height="32" viewBox="0 0 32 32" fill="none" xmlns="http://www.w3.org/2000/svg">
<path d="M29.3712 9.57333C29.3979 9.92 29.3979 10.2667 29.3979 10.6133C29.3979 19.7333 22.5046 30.2667 9.89122 30.2667C6.24455 30.2667 2.85122 29.2267 -0.00878906 27.4133C0.524544 27.4667 1.03121 27.4933 1.59121 27.4933C4.59121 27.4933 7.35121 26.4933 9.56455 24.7867C6.75121 24.7333 4.37788 22.8667 3.57788 20.32C3.99121 20.3733 4.40455 20.4133 4.84455 20.4133C5.43121 20.4133 6.01788 20.3333 6.57122 20.1867C3.63121 19.5867 1.39121 16.9867 1.39121 13.8533V13.7733C2.23121 14.24 3.20455 14.5333 4.23121 14.5733C2.51121 13.4267 1.41788 11.48 1.41788 9.28C1.41788 8.09333 1.73788 7.01333 2.29788 6.08C5.45788 9.97333 10.1312 12.5333 15.3979 12.8C15.2912 12.32 15.2246 11.84 15.2246 11.36C15.2246 7.81333 18.0912 4.93333 21.6512 4.93333C23.4979 4.93333 25.1712 5.70667 26.3579 6.97333C27.8246 6.69333 29.2246 6.13333 30.4646 5.38667C29.9712 6.92 28.9579 8.09333 27.6246 8.84C28.9312 8.69333 30.1979 8.34667 31.3579 7.85333C30.4646 9.17333 29.3446 10.3733 28.0646 11.3333C28.0646 11.3333 29.3712 9.57333 29.3712 9.57333Z" fill="#24292E"/>
</svg>
